<svg xmlns="http://www.w3.org/2000/svg" viewBox="0 0 240 240">
  <defs>
    <radialGradient id="glow" cx="50%" cy="50%" r="50%">
      <stop offset="0%" stop-color="#b696ff" stop-opacity="0.95"/>
      <stop offset="60%" stop-color="#8a62e8" stop-opacity="0.7"/>
      <stop offset="100%" stop-color="#6c39c7" stop-opacity="0"/>
    </radialGradient>
    <linearGradient id="stroke" x1="0" y1="0" x2="1" y2="1">
      <stop offset="0%" stop-color="#cbb5ff"/>
      <stop offset="100%" stop-color="#6c39c7"/>
    </linearGradient>
  </defs>

  <rect width="240" height="240" fill="url(#glow)"/>
  <g transform="translate(120,120)">
    <path d="M0,0
             m-2,0
             a2,2 0 1,0 4,0 a2,2 0 1,0 -4,0
             m0,-8
             c0,0 0,-8 12,-12
             c28,-10 56,10 60,36
             c6,42 -42,74 -80,58
             c-28,-12 -38,-46 -22,-68
             c10,-14 24,-18 32,-16"
          fill="none" stroke="url(#stroke)" stroke-width="3.5"
          stroke-linecap="round" stroke-linejoin="round"/>
  </g>
</svg>
